# xmcd
#
# Track frame offsets: 
#        150
#        11721
#        24638
#        36238
#        48812
#        61859
#        78649
#        89312
#        102326
#        115977
#        126721
#        139280
#
# Disc length: 2024 seconds
#
# Revision: 0
# Processed by: cddbd v1.5.2PL0 Copyright (c) Steve Scherf et al.
# Submitted via: ExactAudioCopy v0.99pb5
#
DISCID=a607e60c
DTITLE=1st Floor  - 1st Floor  
DYEAR=1900
DGENRE=
TTITLE0=Damned Little Fool
TTITLE1=Trusting Mr Jones
TTITLE2=Nevertheless
TTITLE3=Hey. Mr Flowermann
TTITLE4=In Every Hand
TTITLE5=Turn It On
TTITLE6=Mrs O'Grady
TTITLE7=Moonbeam
TTITLE8=A Rainbow Around Us
TTITLE9=Little Mr So And So
TTITLE10=I Think I Can Change You
TTITLE11=Hush
EXTD=
EXTT0=
EXTT1=
EXTT2=
EXTT3=
EXTT4=
EXTT5=
EXTT6=
EXTT7=
EXTT8=
EXTT9=
EXTT10=
EXTT11=
PLAYORDER=
